HIERARCHY
ROOT Hip
{
	OFFSET 0 1.131 0.0052
	CHANNELS 6 Xposition Yposition Zposition Xrotation Yrotation Zrotation
	JOINT Abdomen
	{
		OFFSET 0 -0.047353 -0.05
		CHANNELS 3 Xrotation Zrotation Yrotation
		JOINT Chest
		{
			OFFSET 0 0.132153 0.007439
			CHANNELS 3 Xrotation Zrotation Yrotation
			JOINT Neck
			{
				OFFSET 0 0.3078 0.006161
				CHANNELS 3 Xrotation Zrotation Yrotation
				JOINT Head_comp
				{
					OFFSET 0 0.0884 0.013
					CHANNELS 3 Xrotation Yrotation Zrotation
					End Site
					{
						OFFSET -0 0.156 0.0624
					}
				}
			}
			JOINT Left_Collar
			{
				OFFSET 0.02282 0.250342 0.017193
				CHANNELS 2 Yrotation Zrotation
				JOINT Left_Shoulder
				{
					OFFSET 0.15421 0 0
					CHANNELS 3 Xrotation Yrotation Zrotation
					JOINT Left_Forearm
					{
						OFFSET 0.265212 0 0
						CHANNELS 2 Yrotation Xrotation
						JOINT Left_Hand
						{
							OFFSET 0.27571 0 0
							CHANNELS 2 Zrotation Yrotation
							JOINT L1ProxPhalanx
							{
								OFFSET 0.014142 0.001733 0.014142
								CHANNELS 3 Yrotation Zrotation Xrotation
								JOINT L1MidPhalanx
								{
									OFFSET 0.04 0 0
									CHANNELS 1 Zrotation
									JOINT L1DistPhalanx
									{
										OFFSET 0.035 0 0
										CHANNELS 1 Zrotation
										End Site
										{
											OFFSET 0.029 -0 -0
										}
									}
								}
							}
							JOINT L2ProxPhalanx
							{
								OFFSET 0.0821037 0.001578 0.0219996
								CHANNELS 2 Yrotation Zrotation
								JOINT L2MidPhalanx
								{
									OFFSET 0.04 0 0
									CHANNELS 1 Zrotation
									JOINT L2DistPhalanx
									{
										OFFSET 0.028 0 0
										CHANNELS 1 Zrotation
										End Site
										{
											OFFSET 0.02 -0 -0
										}
									}
								}
							}
							JOINT L3ProxPhalanx
							{
								OFFSET 0.083 0 0
								CHANNELS 2 Yrotation Zrotation
								JOINT L3MidPhalanx
								{
									OFFSET 0.053 0 0
									CHANNELS 1 Zrotation
									JOINT L3DistPhalanx
									{
										OFFSET 0.03 0 0
										CHANNELS 1 Zrotation
										End Site
										{
											OFFSET 0.023 -0 -0
										}
									}
								}
							}
							JOINT L4ProxPhalanx
							{
								OFFSET 0.077274 -0.000761 -0.0207055
								CHANNELS 2 Yrotation Zrotation
								JOINT L4MidPhalanx
								{
									OFFSET 0.05 0 0
									CHANNELS 1 Zrotation
									JOINT L4DistPhalanx
									{
										OFFSET 0.03 0 0
										CHANNELS 1 Zrotation
										End Site
										{
											OFFSET 0.023 -0 -0
										}
									}
								}
							}
							JOINT L5ProxPhalanx
							{
								OFFSET 0.0675499 -0.001644 -0.039
								CHANNELS 2 Yrotation Zrotation
								JOINT L5MidPhalanx
								{
									OFFSET 0.04 0 0
									CHANNELS 1 Zrotation
									JOINT L5DistPhalanx
									{
										OFFSET 0.021 0 0
										CHANNELS 1 Zrotation
										End Site
										{
											OFFSET 0.022 -0 -0
										}
									}
								}
							}
						}
					}
				}
			}
			JOINT Right_Collar
			{
				OFFSET -0.02282 0.250342 0.017193
				CHANNELS 2 Yrotation Zrotation
				JOINT Right_Shoulder
				{
					OFFSET -0.15421 0 0
					CHANNELS 3 Xrotation Yrotation Zrotation
					JOINT Right_Forearm
					{
						OFFSET -0.265212 0 0
						CHANNELS 2 Yrotation Xrotation
						JOINT Right_Hand
						{
							OFFSET -0.27571 3e-006 0
							CHANNELS 2 Zrotation Yrotation
							JOINT R1ProxPhalanx
							{
								OFFSET -0.014142 0.001733 0.014142
								CHANNELS 3 Yrotation Zrotation Xrotation
								JOINT R1MidPhalanx
								{
									OFFSET -0.04 0 0
									CHANNELS 1 Zrotation
									JOINT R1DistPhalanx
									{
										OFFSET -0.035 0 0
										CHANNELS 1 Zrotation
										End Site
										{
											OFFSET -0.029 -0 -0
										}
									}
								}
							}
							JOINT R2ProxPhalanx
							{
								OFFSET -0.0821037 0.001578 0.0219996
								CHANNELS 2 Yrotation Zrotation
								JOINT R2MidPhalanx
								{
									OFFSET -0.04 0 0
									CHANNELS 1 Zrotation
									JOINT R2DistPhalanx
									{
										OFFSET -0.028 0 0
										CHANNELS 1 Zrotation
										End Site
										{
											OFFSET -0.02 -0 -0
										}
									}
								}
							}
							JOINT R3ProxPhalanx
							{
								OFFSET -0.083 0 0
								CHANNELS 2 Yrotation Zrotation
								JOINT R3MidPhalanx
								{
									OFFSET -0.053 0 0
									CHANNELS 1 Zrotation
									JOINT R3DistPhalanx
									{
										OFFSET -0.03 0 0
										CHANNELS 1 Zrotation
										End Site
										{
											OFFSET -0.023 -0 -0
										}
									}
								}
							}
							JOINT R4ProxPhalanx
							{
								OFFSET -0.077274 -0.000761 -0.0207055
								CHANNELS 2 Yrotation Zrotation
								JOINT R4MidPhalanx
								{
									OFFSET -0.05 0 0
									CHANNELS 1 Zrotation
									JOINT R4DistPhalanx
									{
										OFFSET -0.03 0 0
										CHANNELS 1 Zrotation
										End Site
										{
											OFFSET -0.023 -0 -0
										}
									}
								}
							}
							JOINT R5ProxPhalanx
							{
								OFFSET -0.0675499 -0.001644 -0.039
								CHANNELS 2 Yrotation Zrotation
								JOINT R5MidPhalanx
								{
									OFFSET -0.04 0 0
									CHANNELS 1 Zrotation
									JOINT R5DistPhalanx
									{
										OFFSET -0.021 0 0
										CHANNELS 1 Zrotation
										End Site
										{
											OFFSET -0.022 -0 -0
										}
									}
								}
							}
						}
					}
				}
			}
		}
	}
	JOINT Left_Thigh
	{
		OFFSET 0.1118 -0.1612 -0.0442
		CHANNELS 3 Xrotation Zrotation Yrotation
		JOINT Left_Shin
		{
			OFFSET 0 -0.477856 0
			CHANNELS 1 Xrotation
			JOINT Left_Foot
			{
				OFFSET 0 -0.431952 0
				CHANNELS 2 Xrotation Zrotation
				JOINT Left_Toe
				{
					OFFSET 0 -0.0442 0.119
					CHANNELS 1 Xrotation
					End Site
					{
						OFFSET -0 -0 0.07
					}
				}
			}
		}
	}
	JOINT Right_Thigh
	{
		OFFSET -0.1118 -0.1612 -0.0442
		CHANNELS 3 Xrotation Zrotation Yrotation
		JOINT Right_Shin
		{
			OFFSET 0 -0.477856 0
			CHANNELS 1 Xrotation
			JOINT Right_Foot
			{
				OFFSET 0 -0.431952 0
				CHANNELS 2 Xrotation Zrotation
				JOINT Right_Toe
				{
					OFFSET 0 -0.0442 0.119
					CHANNELS 1 Xrotation
					End Site
					{
						OFFSET -0 -0 0.07
					}
				}
			}
		}
	}
}
MOTION
Frames: 8
Frame Time: 0.009975
-0.106812 -0.0600314 0.0458424 -1.54737e-012 3.84271e-008 -5.10926e-006 0 0 0 0 0 0 0 0 0 0 0 0 0 0 -0 0 -0 0 0 0 0 -5.69308 -75.8649 123.342 -6.86633 -4.64067 -5.01487 -32.4107 -7.56442 -11.9329 -0.718489 0.363943 -1.6708 -3.55795 -2.85333 2.05623 -6.34562 -1.53272 5.29041 4.42169 -28.9776 22.0147 0 0 -0 0 -0 0 0 0 0 37.9386 28.008 73.698 26.2405 28.4472 13.118 18.2167 29.0248 19.6359 0 22.4358 32.6146 28.1246 -8.63175 30.7051 32.2053 23.7634 -7.83088 26.7354 35.1526 30.0193 0.419512 -0.314109 -0.00229993 0.0240216 -0.443528 0.314122 0 0.430917 -0.314108 -0.00236245 1.70755e-006 -0.430913 0.314122 0 
-0.106812 -0.0600314 0.0458424 -1.54737e-012 3.84271e-008 -5.10926e-006 0 0 0 0 0 0 0 0 0 0 0 0 0 0 -0 0 -0 0 0 0 0 -5.69308 -75.8649 123.342 -6.86633 -4.64067 -5.01487 -32.4107 -7.56442 -11.9329 -0.718489 0.363943 -1.6708 -3.55795 -2.85333 2.05623 -6.34562 -1.53272 5.29041 4.42169 -28.9776 22.0147 0 0 -0 0 -0 0 0 0 0 37.9386 28.008 73.698 26.2405 28.4472 13.118 18.2167 29.0248 19.6359 0 22.4358 32.6146 28.1246 -8.63175 30.7051 32.2053 23.7634 -7.83088 26.7354 35.1526 30.0193 0.419512 -0.314109 -0.00229993 0.0240216 -0.443528 0.314122 0 0.430917 -0.314108 -0.00236245 1.70755e-006 -0.430913 0.314122 0 
-0.101406 -0.0600776 0.0321566 -4.97591e-013 -3.84366e-008 -5.08397e-006 0 -0 0 0 -0 0 0 -0 0 -0.70988 0.290995 -9.05878e-006 -10.9403 -15.2456 -26.4851 -25.4484 -23.2791 -25.2678 16.6164 6.89627 -5.43724 -6.63818 -75.7052 122.423 -7.00699 -4.71747 -4.9948 -32.3986 -7.7266 -11.9482 -0.714992 0.202128 -1.86245 -3.63016 -2.83221 1.88604 -6.51389 -1.61506 5.29388 4.27958 -29.0027 21.8046 10.9403 15.2456 -26.4851 25.4484 23.2791 25.2678 16.6164 -6.89627 5.43724 6.63818 75.7052 122.423 7.00699 4.71747 4.9948 32.3986 7.7266 11.9482 0.714992 -0.202128 1.86245 3.63016 2.83221 -1.88604 6.51389 1.61506 -5.29388 -4.27958 29.0027 -21.8046 -0.442351 -0.654578 0.00506639 0.0239015 0.418421 0.654603 0 -0.431002 -0.654579 0.00493641 1.69901e-006 0.430973 0.654603 0 
-0.10135 -0.0600868 0.0310511 -5.001e-013 -3.86298e-008 -5.10951e-006 0 -0 0 0 -0 0 0 -0 0 -0.711506 0.290614 -2.35833e-010 -10.9949 -15.322 -26.5397 -25.6261 -22.9845 -25.3885 16.6985 6.9309 -5.46453 -5.69308 -75.8649 123.342 -6.86633 -4.64067 -5.01487 -32.4107 -7.56442 -11.9329 -0.718489 0.363943 -1.6708 -3.55795 -2.85333 2.05623 -6.34562 -1.53272 5.29041 4.42169 -28.9776 22.0147 10.9949 15.322 -26.5397 25.6261 22.9845 25.3885 16.6985 -6.9309 5.46453 5.69308 75.8649 123.342 6.86633 4.64067 5.01487 32.4107 7.56442 11.9329 0.718489 -0.363943 1.6708 3.55795 2.85333 -2.05623 6.34562 1.53272 -5.29041 -4.42169 28.9776 -22.0147 -0.51203 -0.658112 0.00588136 0.0240216 0.487974 0.658143 0 -0.500624 -0.658113 0.00575036 1.28066e-008 0.500591 0.658143 0 
-0.10135 -0.0600869 0.031033 1.67252e-012 -4.46908e-008 -5.10947e-006 0 -0 0 0 -0 0 0 -0 0 -0.711481 0.290591 -8.40575e-015 -10.9949 -15.322 -26.5398 -25.626 -22.9848 -25.3885 16.6985 6.9309 -5.46453 -5.69308 -75.8649 123.342 -6.86633 -4.64067 -5.01487 -32.4107 -7.56442 -11.9329 -0.718489 0.363943 -1.6708 -3.55795 -2.85333 2.05623 -6.34562 -1.53272 5.29041 4.42169 -28.9776 22.0147 10.9949 15.322 -26.5398 25.626 22.9848 25.3885 16.6985 -6.9309 5.46453 5.69308 75.8649 123.342 6.86633 4.64067 5.01487 32.4107 7.56442 11.9329 0.718489 -0.363943 1.6708 3.55795 2.85333 -2.05623 6.34562 1.53272 -5.29041 -4.42169 28.9776 -22.0147 -0.51317 -0.658117 0.0058945 0.0240216 0.489115 0.658148 0 -0.501765 -0.658118 0.0057635 1.69047e-006 0.50173 0.658148 0 
-0.10135 -0.0600869 0.0310328 -6.21773e-014 -4.47476e-008 -5.10946e-006 0 -0 0 0 -0 0 0 -0 0 -0.711481 0.290591 -0 -10.9949 -15.322 -26.5398 -25.626 -22.9848 -25.3885 16.6985 6.9309 -5.46453 -5.69308 -75.8649 123.342 -6.86633 -4.64067 -5.01487 -32.4107 -7.56442 -11.9329 -0.718489 0.363943 -1.6708 -3.55795 -2.85333 2.05623 -6.34562 -1.53272 5.29041 4.42169 -28.9776 22.0147 10.9949 15.322 -26.5398 25.626 22.9848 25.3885 16.6985 -6.9309 5.46453 5.69308 75.8649 123.342 6.86633 4.64067 5.01487 32.4107 7.56442 11.9329 0.718489 -0.363943 1.6708 3.55795 2.85333 -2.05623 6.34562 1.53272 -5.29041 -4.42169 28.9776 -22.0147 -0.513183 -0.658117 0.00589465 0.0240216 0.489127 0.658149 0 -0.501777 -0.658118 0.00576364 1.70755e-006 0.501742 0.658148 0 
-0.10135 -0.0600869 0.0310328 1.14484e-012 -4.47481e-008 -5.10946e-006 0 -0 0 0 -0 0 0 -0 0 -0.711481 0.290591 -3.88256e-019 -10.9949 -15.322 -26.5398 -25.626 -22.9848 -25.3885 16.6985 6.9309 -5.46453 -5.69308 -75.8649 123.342 -6.86633 -4.64067 -5.01487 -32.4107 -7.56442 -11.9329 -0.718489 0.363943 -1.6708 -3.55795 -2.85333 2.05623 -6.34562 -1.53272 5.29041 4.42169 -28.9776 22.0147 10.9949 15.322 -26.5398 25.626 22.9848 25.3885 16.6985 -6.9309 5.46453 5.69308 75.8649 123.342 6.86633 4.64067 5.01487 32.4107 7.56442 11.9329 0.718489 -0.363943 1.6708 3.55795 2.85333 -2.05623 6.34562 1.53272 -5.29041 -4.42169 28.9776 -22.0147 -0.513183 -0.658117 0.00589465 0.0240216 0.489127 0.658149 0 -0.501777 -0.658118 0.00576364 2.41484e-006 0.501742 0.658148 0 
-0.10135 -0.0600869 0.0310328 -1.55977e-012 -4.47481e-008 -5.10947e-006 0 -0 0 0 -0 0 0 -0 0 -0.711481 0.290591 -3.88256e-019 -10.9949 -15.322 -26.5398 -25.626 -22.9848 -25.3885 16.6985 6.9309 -5.46453 -5.69308 -75.8649 123.342 -6.86633 -4.64067 -5.01487 -32.4107 -7.56442 -11.9329 -0.718489 0.363943 -1.6708 -3.55795 -2.85333 2.05623 -6.34562 -1.53272 5.29041 4.42169 -28.9776 22.0147 10.9949 15.322 -26.5398 25.626 22.9848 25.3885 16.6985 -6.9309 5.46453 5.69308 75.8649 123.342 6.86633 4.64067 5.01487 32.4107 7.56442 11.9329 0.718489 -0.363943 1.6708 3.55795 2.85333 -2.05623 6.34562 1.53272 -5.29041 -4.42169 28.9776 -22.0147 -0.513183 -0.658117 0.00589465 0.0240216 0.489127 0.658149 0 -0.501777 -0.658118 0.00576364 4.95538e-008 0.501743 0.658148 0 
